# xmcd CD database file
#
# Track frame offsets:
#	150
#	3408
#	20288
#	38372
#	51448
#	74660
#	97118
#	140162
#
# Disc length: 2092 seconds
#
# Revision: 0
# Processed by: cddbd v1.5.1PL0 Copyright (c) Steve Scherf et al.
# Submitted via: CDex 1.51
#
DISCID=6c082a08
DTITLE=MYU-RECORDINGS (WATER CLOCK) - FRAGMENTS
DYEAR=1900
DGENRE=J ポップ
TTITLE0=INTRODUCTION
TTITLE1=DEVELOPING TRANSITION
TTITLE2=FRAGMENTS
TTITLE3=みどりの想い
TTITLE4=夢 (fragments mix #1)
TTITLE5=雲の上で (fragments mix #2)
TTITLE6=泉の詩 (fragments mix #3)
TTITLE7=ボーナストラック
EXTD=
EXTT0=
EXTT1=
EXTT2=
EXTT3=
EXTT4=
EXTT5=
EXTT6=
EXTT7=
PLAYORDER=
